Coordinates
version=1
nRows=29
nColumns=24
inDegrees=yes

Units are S.I. units (second, meters, Newtons, ...)
Angles are in degrees.

endheader
time	pelvis_tilt	pelvis_list	pelvis_rotation	pelvis_tx	pelvis_ty	pelvis_tz	hip_flexion_r	hip_adduction_r	hip_rotation_r	knee_angle_r	ankle_angle_r	subtalar_angle_r	mtp_angle_r	hip_flexion_l	hip_adduction_l	hip_rotation_l	knee_angle_l	ankle_angle_l	subtalar_angle_l	mtp_angle_l	lumbar_extension	lumbar_bending	lumbar_rotation
      1.10833333	    -13.10040431	     -1.87989705	     -6.27612376	     -0.09188368	      0.96215829	      0.35892462	     -5.65206429	      8.28868957	      9.33952292	     -2.16944045	     -2.09322208	      3.07318469	    -46.35357008	     34.23300644	     -2.21915187	     -8.37434677	      4.27542680	    -15.82509251	     -9.40746515	    -11.55023465	     26.06287460	      3.71866817	      6.73172922
      1.11250000	    -13.10808644	     -1.88894961	     -6.29576164	     -0.08628811	      0.96167465	      0.35893761	     -5.76967134	      8.27905518	      9.35187290	     -2.56440711	     -2.17190172	      3.10538764	    -46.34440966	     34.21156955	     -2.17209357	     -8.30218623	      4.12361740	    -15.86134192	     -9.42760400	    -11.55549474	     26.11523986	      3.68874981	      6.73393417
      1.11666667	    -13.11170873	     -1.89849147	     -6.31392189	     -0.08066839	      0.96122343	      0.35894125	     -5.87381026	      8.26966462	      9.35095025	     -2.98821009	     -2.24787274	      3.15562643	    -46.33334351	     34.18560251	     -2.12628872	     -8.19543509	      3.90639269	    -15.90061103	     -9.46756101	    -11.55977677	     26.15375127	      3.65853000	      6.73862151
      1.12083333	    -13.19858723	     -1.95512805	     -6.20633006	     -0.07507455	      0.96057556	      0.35840078	     -5.84443591	      8.29168593	      8.99626489	     -3.47792672	     -2.23408788	      3.58958611	    -46.22683622	     34.28394042	     -2.01457322	     -7.75276847	      3.59110310	    -15.94885860	     -9.95264790	    -11.58790642	     26.18856256	      3.76243542	      6.72560618
      1.12500000	    -13.18565584	     -1.94269223	     -6.23669353	     -0.06929771	      0.96022149	      0.35847189	     -5.94595490	      8.25657059	      9.01894085	     -3.94704294	     -2.31999993	      3.62359319	    -46.21555505	     34.21678424	     -1.96297688	     -7.64896335	      3.30690324	    -16.02155791	     -9.97851121	    -11.59060879	     26.26136678	      3.69287215	      6.73564146
      1.12916667	    -13.17085476	     -1.94409076	     -6.25932779	     -0.06354052	      0.95989000	      0.35851554	     -6.02227031	      8.23612382	      8.99435376	     -4.45663547	     -2.41926261	      3.70089462	    -46.20123503	     34.15314634	     -1.92499983	     -7.52108183	      2.97211766	    -16.11744858	    -10.03238353	    -11.59284877	     26.30306119	      3.62854689	      6.74737933
      1.13333333	    -13.27816799	     -1.98139376	     -6.11078128	     -0.05775179	      0.95928163	      0.35776938	     -5.90771169	      8.22118199	      8.40803487	     -5.03929938	     -2.47250069	      4.35566437	    -46.06492557	     34.26311153	     -1.75694640	     -7.06907864	      2.59347668	    -16.48864666	    -10.68852956	    -11.60408107	     26.38240375	      3.74053820	      6.73792296
      1.13750000	    -13.24452704	     -1.96155466	     -6.15222662	     -0.05186850	      0.95907191	      0.35789397	     -5.97569540	      8.17682433	      8.42616101	     -5.60480355	     -2.57961674	      4.40204737	    -46.05081141	     34.14141037	     -1.71636597	     -6.94024114	      2.24950271	    -16.58842925	    -10.72495022	    -11.60441698	     26.45223665	      3.63915609	      6.75219352
      1.14166667	    -13.29791620	     -1.96766645	     -6.05191651	     -0.04597746	      0.95865723	      0.35731885	     -5.88381555	      8.12531460	      7.91772727	     -6.24499262	     -2.70431701	      4.96267274	    -45.91835259	     34.15964084	     -1.56072458	     -6.64765815	      1.88835557	    -17.09981401	    -11.27091234	    -11.60458181	     26.47107912	      3.64892631	      6.74552894
      1.14583333	    -13.30303511	     -1.91593339	     -6.12244932	     -0.03998172	      0.95848000	      0.35737478	     -5.84236337	      8.02925940	      7.80319115	     -6.91931899	     -2.83655381	      5.11714845	    -45.86852750	     34.02613439	     -1.49559632	     -6.43697972	      1.59988051	    -17.30718913	    -11.41231219	    -11.60092664	     26.50156514	      3.53474537	      6.75529316
      1.15000000	    -13.29934295	     -1.91884255	     -5.96402856	     -0.03393381	      0.95822038	      0.35675352	     -5.80066149	      7.96815330	      7.28372653	     -7.56780207	     -3.02374741	      5.71647478	    -45.73192073	     33.97390616	     -1.30984108	     -6.23836235	      1.24188054	    -17.93689055	    -11.91462932	    -11.59011182	     26.61520668	      3.54883104	      6.75754726
      1.15416667	    -13.29592795	     -1.87115721	     -5.91808098	     -0.02783058	      0.95807904	      0.35632596	     -5.71602366	      7.84124035	      6.86865789	     -8.30989015	     -3.16481125	      6.20499942	    -45.54462547	     33.83800912	     -1.14018304	     -5.94790993	      0.99256825	    -18.54051570	    -12.51358942	    -11.56253802	     26.67231173	      3.45612143	      6.75482439
      1.15833333	    -13.26774537	     -1.84251774	     -5.88099616	     -0.02176009	      0.95802457	      0.35609774	     -5.64030567	      7.75413872	      6.53489552	     -9.06967528	     -3.40125722	      6.55318911	    -45.43020539	     33.69088355	     -1.02946630	     -5.83417409	      0.68705861	    -18.98927832	    -12.72026934	    -11.54153101	     26.67929813	      3.37981848	      6.75899211
      1.16250000	    -13.24177976	     -1.79279768	     -5.82363224	     -0.01558995	      0.95800420	      0.35574760	     -5.53732543	      7.62755779	      6.10715150	     -9.85959097	     -3.67520937	      7.00460816	    -45.30708075	     33.52641675	     -0.87614476	     -5.70449181	      0.43492750	    -19.59822039	    -13.00939555	    -11.51630088	     26.72461911	      3.29546250	      6.77359719
      1.16666667	    -13.21789278	     -1.74270676	     -5.75913509	     -0.00939420	      0.95802936	      0.35535361	     -5.40374727	      7.49198430	      5.65772671	    -10.69315573	     -3.96397063	      7.47645758	    -45.17951785	     33.35633666	     -0.71823168	     -5.57342209	      0.19574846	    -20.24531811	    -13.35189076	    -11.48574750	     26.77111635	      3.20952626	      6.78692086
      1.17083333	    -13.17872508	     -1.68412912	     -5.69328576	     -0.00315326	      0.95812515	      0.35493495	     -5.25870737	      7.33688999	      5.18844389	    -11.56784175	     -4.28671657	      7.96657016	    -45.05000806	     33.15451283	     -0.55211563	     -5.44815027	     -0.01587985	    -20.91857065	    -13.68574585	    -11.45018042	     26.80466241	      3.11467189	      6.79895038
      1.17500000	    -13.14905861	     -1.60194577	     -5.74487615	      0.00304360	      0.95831655	      0.35487205	     -5.05853874	      7.16760836	      4.91229368	    -12.53549206	     -4.57762735	      8.20110000	    -45.00650844	     32.91424247	     -0.46060101	     -5.32065801	     -0.21398995	    -21.24687955	    -13.72750254	    -11.43609941	     26.77747369	      3.00346513	      6.80613417
      1.17916667	    -13.08971026	     -1.55900891	     -5.54509624	      0.00939614	      0.95845693	      0.35411713	     -4.89962727	      7.00427197	      4.24429547	    -13.42289842	     -5.06252045	      8.92614700	    -44.89157631	     32.73607153	     -0.23067490	     -5.30290082	     -0.46038312	    -22.17164512	    -14.08461067	    -11.40269956	     26.87776065	      2.91319648	      6.82958792
      1.18333333	    -13.00289058	     -1.43069027	     -5.49448036	      0.01586054	      0.95879825	      0.35345965	     -4.72331890	      6.70498655	      3.73791248	    -14.41795918	     -5.43979256	      9.54311058	    -44.65306995	     32.39352203	      0.02847648	     -4.98199466	     -0.50174053	    -23.13139105	    -14.89406976	    -11.31149882	     26.91353015	      2.74881334	      6.81769885
      1.18750000	    -12.92508889	     -1.37642845	     -5.41409766	      0.02208097	      0.95912413	      0.35306948	     -4.49019957	      6.53340512	      3.23046517	    -15.47888230	     -5.88235264	      9.95024640	    -44.57950936	     32.17058928	      0.16237641	     -5.04403430	     -0.80288279	    -23.51129819	    -14.86770145	    -11.27968648	     26.84104246	      2.63962249	      6.82344808
      1.19166667	    -12.84287291	     -1.25389327	     -5.34089472	      0.02855946	      0.95952274	      0.35248800	     -4.25646910	      6.23932981	      2.73608328	    -16.51261860	     -6.47912230	     10.56481267	    -44.41183826	     31.85519004	      0.39126607	     -4.85101339	     -0.90840923	    -24.30265434	    -15.18418813	    -11.20490535	     26.89768715	      2.47388552	      6.82089229
      1.19583333	    -12.75232901	     -1.17970546	     -5.24459192	      0.03484275	      0.95993761	      0.35198254	     -3.97852860	      6.01434843	      2.19368890	    -17.65045660	     -6.98332382	     10.99806705	    -44.34433475	     31.61134386	      0.55437127	     -4.92659461	     -1.20651819	    -24.68081601	    -15.19594276	    -11.17182647	     26.81832606	      2.34814834	      6.82782737
      1.20000000	    -12.65405069	     -1.04346705	     -5.17033940	      0.04131157	      0.96042725	      0.35134761	     -3.69434960	      5.67959876	      1.70683453	    -18.76516912	     -7.69442710	     11.60563444	    -44.20125605	     31.27635860	      0.79479792	     -4.74153654	     -1.32828327	    -25.38130427	    -15.50093972	    -11.09877309	     26.85143079	      2.16910193	      6.82224650
      1.20416667	    -12.55438601	     -0.94554821	     -5.07073986	      0.04761563	      0.96092725	      0.35079476	     -3.36666851	      5.40343741	      1.19175886	    -19.97644059	     -8.26162432	     12.03583081	    -44.14973951	     31.01155941	      0.97771830	     -4.80390378	     -1.62460823	    -25.69710492	    -15.47032239	    -11.06867237	     26.76541675	      2.01374402	      6.83208644
      1.20833333	    -12.46394479	     -0.80264523	     -5.07259290	      0.05392619	      0.96149498	      0.35040883	     -2.97771582	      5.06531273	      0.80828458	    -21.27224180	     -8.79281415	     12.36455865	    -44.13298985	     30.69206463	      1.14934076	     -4.74741007	     -1.83094800	    -25.92855431	    -15.36515870	    -11.05514848	     26.68370481	      1.87367675	      6.83657608
      1.21250000	    -12.28326244	     -0.65831401	     -4.88560279	      0.06043874	      0.96215530	      0.34941543	     -2.71821322	      4.66592825	      0.21994805	    -22.39237888	     -9.88304879	     13.01567611	    -44.00238214	     30.29467907	      1.47463913	     -4.60524641	     -1.99612335	    -26.67054377	    -15.90392367	    -10.97167562	     26.62756068	      1.62640767	      6.81380366
      1.21666667	    -12.16950382	     -0.52346422	     -4.78141973	      0.06677408	      0.96274681	      0.34881164	     -2.32464635	      4.31380448	     -0.21525915	    -23.67711011	    -10.60276862	     13.51345364	    -43.97784805	     29.98889895	      1.68966800	     -4.63574120	     -2.26956625	    -26.88883901	    -15.74081685	    -10.94735467	     26.58053975	      1.43281082	      6.82765317
      1.22083333	    -12.04443281	     -0.36160900	     -4.71525817	      0.07313505	      0.96340445	      0.34817264	     -1.91166001	      3.90888764	     -0.58005425	    -24.94774606	    -11.58774585	     13.97791158	    -43.94567420	     29.62568226	      1.92953884	     -4.54242750	     -2.46295217	    -27.17390016	    -15.75993993	    -10.90920576	     26.55243336	      1.25819498	      6.81644210
      1.22500000	    -11.91872134	     -0.22989504	     -4.58943369	      0.07936952	      0.96403382	      0.34749637	     -1.47050627	      3.54511448	     -0.97758357	    -26.27636014	    -12.44476387	     14.40248616	    -43.94148170	     29.31561539	      2.15356279	     -4.56983115	     -2.75499213	    -27.36399242	    -15.69149292	    -10.89046087	     26.43640342	      1.01708953	      6.83427789
